<svg t="1594282873691" class="icon" viewBox="0 0 1024 1024" version="1.1" xmlns="http://www.w3.org/2000/svg" p-id="3950" width="128" height="128"><path d="M793.2 746.8s-95.6-169.9-347.6-169.9S98 746.8 98 746.8v84.9h695.1l0.1-84.9z" fill="#B0BEC5" p-id="3951"></path><path d="M230.9 318.3a214.3 221.8 0 1 0 428.6 0 214.3 221.8 0 1 0-428.6 0Z" fill="#FFB74D" p-id="3952"></path><path d="M555 739.4c0 102.8 83.3 186.2 186.1 186.3s186.2-83.3 186.3-186.1v-0.1c0-102.8-83.3-186.2-186.1-186.3S555 636.4 555 739.2v0.2z" fill="#43A047" p-id="3953"></path><path d="M825 651.8L718.9 758l-50.3-50.3-39.1 41 89.4 89.4 145.2-145.2-39.1-41.1z" fill="#DCEDC8" p-id="3954"></path></svg>
