<svg t="1594282737456" class="icon" viewBox="0 0 1024 1024" version="1.1" xmlns="http://www.w3.org/2000/svg" p-id="3264" width="128" height="128"><path d="M928 623.6C928 791.1 742 927 512.5 927S97 791.1 97 623.6s186-303.4 415.5-303.4S928 456 928 623.6zM512.8 321.2C298.1 321.2 124 438.8 124 583.9s174.1 262.7 388.8 262.7S901.6 729 901.6 583.9 727.5 321.2 512.8 321.2z" fill="#FFCCBC" p-id="3265"></path><path d="M677 313c0-29.6-28.8-53.8-64-53.8s-64 24.2-64 53.8v430.1h128V313z m192-107.5c0-29.6-28.8-53.8-64-53.8s-64 24.2-64 53.8v537.6h128V205.5z m-384-53.8c0-29.6-28.8-53.8-64-53.8s-64 24.2-64 53.8V743h128V151.7zM293 420.5c0-29.6-28.8-53.8-64-53.8s-64 24.2-64 53.8v322.6h128V420.5z" fill="#FF5722" p-id="3266"></path></svg>
