<svg t="1594282969842" class="icon" viewBox="0 0 1024 1024" version="1.1" xmlns="http://www.w3.org/2000/svg" p-id="4344" width="128" height="128"><path d="M748.5 832.2l-565.7 1.9c-2.7 0-4.8-2.7-4.8-6.1l-1.8-721.8c0-3.4 2.1-6.1 4.8-6.1l389.1-1.3c1.1 0 114.1-1.1 115-0.2l66.6 82.6c1.2 1.2 0.2 93 0.2 94.9l1.4 550.1c0 3.3-2.1 6-4.8 6z" fill="#B2DFDB" p-id="4345"></path><path d="M732.5 190.9l-64.4 1.1-0.9-74.2 65.3 73.1z" fill="#FFFFFF" p-id="4346"></path><path d="M656.8 287.5H272.7v-64.2h384.1v64.2z m0 63.8H272.7v64.2h384.1v-64.2z m-192 129h-192v64.2h192v-64.2z" fill="#009688" p-id="4347"></path><path d="M505.6 711.9c0 94.5 76.6 171.1 171.1 171.2 94.5 0 171.1-76.6 171.2-171.1v-0.1c0-94.5-76.6-171.1-171.1-171.1s-171.2 76.6-171.2 171.1z" fill="#FFF59D" p-id="4348"></path><path d="M787.9 711.9c0-65.9-56.5-118.1-124.1-110.4-51.3 6-92.4 47.1-97.5 98.4-4.3 39.4 12 74.4 39.4 96.7 12 10.3 19.7 24.8 19.7 41.1v2.6H728v-0.9c0-15.4 6.8-30.8 18.8-41.1 24.8-20.5 41.1-51.3 41.1-86.4z" fill="#FBC02D" p-id="4349"></path><path d="M651 900.2c0 14.2 11.5 25.7 25.7 25.7s25.7-11.5 25.7-25.7-11.5-25.7-25.7-25.7S651 886 651 900.2z" fill="#5C6BC0" p-id="4350"></path><path d="M733.1 696.5l-25.7-17.1c-2.6-1.7-6.8-1.7-9.4 0l-21.4 13.7-20.5-13.7c-2.6-1.7-6.8-1.7-9.4 0L621 696.5c-1.7 1.7-3.4 3.4-3.4 6s0 5.1 1.7 6.8l32.5 40.2v90.7H669v-94.1c0-1.7-0.9-3.4-1.7-5.1L639 705.9l12.8-8.6 20.5 13.7c2.6 1.7 6.8 1.7 9.4 0l20.5-13.7 12.8 8.6-28.1 35.1c-0.9 1.7-1.7 3.4-1.7 5.1v94.1h17.1v-90.7l32.5-40.2c1.7-1.7 2.6-4.3 1.7-6.8-0.8-2.5-1.7-5.1-3.4-6z" fill="#FFF59D" p-id="4351"></path><path d="M693.8 908.7h-34.2c-18.8 0-34.2-15.4-34.2-34.2v-42.8H728v42.8c0 18.8-15.4 34.2-34.2 34.2z" fill="#9FA8DA" p-id="4352"></path><path d="M728 874.5l-99.2 13.7c2.6 6 7.7 12 13.7 15.4l80.4-11.1c3.4-5.2 5.1-11.2 5.1-18z m-102.7-19.7v17.1L728 857.4v-17.1l-102.7 14.5z" fill="#5C6BC0" p-id="4353"></path></svg>
