<svg t="1594282956688" class="icon" viewBox="0 0 1024 1024" version="1.1" xmlns="http://www.w3.org/2000/svg" p-id="4214" width="128" height="128"><path d="M865 805.4H298.5c-5.5 0-10-4.5-10-10V123c0-5.5 4.5-10 10-10H865c5.5 0 10 4.5 10 10v672.4c0 5.5-4.5 10-10 10z" fill="#673AB7" p-id="4215"></path><path d="M725.5 911H159c-5.5 0-10-4.5-10-10V216.6c0-5.5 4.5-10 10-10h566.5c5.5 0 10 4.5 10 10V901c0 5.5-4.5 10-10 10z" fill="#D1C4E9" p-id="4216"></path><path d="M634.9 398.7H256.6v-63.8h378.3v63.8z m0 64.4H256.6v63.6h378.3v-63.6z m-280 127.8h-98.4v63.9h98.4v-63.9z m280 0h-214v63.9h213.9v-63.9zM513.2 718.8H256.6v63.9h256.7v-63.9z" fill="#FFFFFF" p-id="4217"></path></svg>
