<svg t="1594282888247" class="icon" viewBox="0 0 1024 1024" version="1.1" xmlns="http://www.w3.org/2000/svg" p-id="4081" width="128" height="128"><path d="M895 810.5H130c-6.6 0-12-5.4-12-12V224c0-6.6 5.4-12 12-12h765c6.6 0 12 5.4 12 12v574.5c0 6.6-5.4 12-12 12z" fill="#E1F5FE" p-id="4082"></path><path d="M895 830.5H130c-17.6 0-32-14.4-32-32V224c0-17.6 14.4-32 32-32h765c17.6 0 32 14.4 32 32v574.5c0 17.6-14.4 32-32 32z m-757-40h749V232H138v558.5z" fill="#607D8B" p-id="4083"></path><path d="M898 272.7H129.3c-6.3 0-11.4-1.6-11.3-3.5l1.4-38.8c0.1-1.9 5.3-3.5 11.6-3.5h768.7c6.3 0 11.4 1.6 11.3 3.5l-1.4 38.8c-0.1 1.9-5.3 3.5-11.6 3.5z" fill="#607D8B" p-id="4084"></path><path d="M338.3 274H174.2l18.3-52h127.6z" fill="#E1F5FE" p-id="4085"></path><path d="M825.1 219.7c9.4 0 17 7.6 17 17s-7.6 17-17 17-17-7.6-17-17c0.1-9.4 7.7-17 17-17z m-46.3 0c9.4 0 17 7.6 17 17s-7.6 17-17 17-17-7.6-17-17 7.6-17 17-17z m92 33.9c-9.4 0-17-7.6-17-17s7.6-17 17-17 17 7.6 17 17c-0.1 9.5-7.7 17-17 17z" fill="#FFFFFF" p-id="4086"></path><path d="M320.4 670.3h-128v-128h128v128z m-88-40h48v-48h-48v48z m88-152h-128v-128h128v128z m-88-40h48v-48h-48v48zM832.1 453.8H384.2v-80h447.9v80z m-192 192.7H384.5v-80h255.6v80z" fill="#1565C0" p-id="4087"></path></svg>
